<svg width="393" height="179" viewBox="0 0 393 179" fill="none" xmlns="http://www.w3.org/2000/svg">
<path d="M0 0C18.7142 5.56377 37.4284 11.1285 56.1427 9.54633C74.8569 7.96412 93.5711 -0.763065 112.286 4.77267C131 10.3094 149.714 30.1101 168.429 33.4127C187.143 36.7163 205.857 23.5219 224.571 16.7063C243.286 9.89081 262 9.45521 280.714 9.54633C299.429 9.63746 318.143 10.2543 336.857 9.54633C355.572 8.83834 374.286 6.80551 393 4.77267V179C374.286 179 355.572 179 336.857 179C318.143 179 299.429 179 280.714 179C262 179 243.286 179 224.571 179C205.857 179 187.143 179 168.429 179C149.714 179 131 179 112.286 179C93.5711 179 74.8569 179 56.1427 179C37.4284 179 18.7142 179 0 179V0Z" fill="#ABD4EF"/>
</svg>
